<svg width="232" height="345" viewBox="0 0 232 345" fill="none" xmlns="http://www.w3.org/2000/svg">
<path d="M203 35.5C203 35.5 171.812 42.4329 151.5 44.5C122.75 47.4259 77.5 44.5 77.5 44.5" stroke="black" stroke-width="3"/>
<path d="M42.5 23C48.9 25.8 56 31.5 82.5 31.5C109 31.5 147 31.5 147 31.5" stroke="black" stroke-width="3"/>
<path d="M216.5 300.5C216.5 300.5 180.974 286.982 150 283.5C106.286 278.586 27.5 291.5 27.5 291.5" stroke="black" stroke-width="3"/>
<path d="M22.5 33.5C23.6048 40.9302 31.5 50.5 31.5 50.5C31.5 50.5 86.5673 57.2287 122 57C154.512 56.7902 202.5 51.5 202.5 51.5C202.5 51.5 209.371 39.158 209.5 31C209.655 21.2069 202.5 8 202.5 8C202.5 8 146.89 15 113.5 15C80.1102 15 31.5 8 31.5 8C31.5 8 20.9469 23.0544 22.5 33.5Z" fill="#C6D3D3" fill-opacity="0.56" stroke="black" stroke-width="3"/>
<path d="M31.1324 69V50C31.1324 50 83.0404 56.1118 116.632 56.5C149.825 56.8836 202.132 52 202.132 52C202.132 52 201.667 61.769 202.132 68C203.854 91.0411 217.172 101.049 222.632 123.5C229.401 151.328 229.632 196.5 229.632 196.5L225.132 306C225.132 306 223.579 316.253 214.132 322.5C200.381 331.594 164.132 339.5 164.132 339.5C164.132 339.5 133.999 342.423 114.632 342.5C93.9016 342.583 61.6324 339.5 61.6324 339.5C61.6324 339.5 24.1189 333.913 11.6323 316C6.53 308.68 2.13238 294.5 2.13238 294.5V204C2.13238 204 0.508919 153.975 8.63238 123.5C14.5631 101.251 31.1324 76.42 31.1324 69Z" fill="#C6D3D3" fill-opacity="0.53" stroke="black" stroke-width="3"/>
<path d="M53 69.5V80.5C53 80.5 43.2536 95.3758 39.5 106C34.5693 119.956 34 143.5 34 143.5" stroke="black" stroke-width="3"/>
<path d="M188 316.5C188 316.5 132.242 326.967 102 325C73.1045 323.121 33.9753 315.5 42.5 305.5C47.3897 299.764 58.5004 301 58.5004 301" stroke="black" stroke-width="3"/>
<path d="M215 321.5C193 334.5 169.5 339 169.5 339H154C154 339 166.428 245.668 162 186C160.165 161.267 154 123 154 123C154 123 140.244 100.626 137.5 84.5C135.535 72.9502 137.5 54.5 137.5 54.5C137.5 54.5 144.962 40.8775 144.5 31.5C144.102 23.4188 137.5 12 137.5 12L201.5 7.5C201.5 7.5 211.141 21.5106 210.5 31.5C209.952 40.0473 201.5 51.5 201.5 51.5C201.5 51.5 202.148 69.7549 205 81C208.846 96.1627 216.575 102.653 221.5 117.5C230.307 144.052 231 188.5 231 188.5L225 308C225 308 220.649 318.162 215 321.5Z" fill="#CACACA" fill-opacity="0.55"/>
<path d="M22.5 24L31 9L66.5 11.5C66.5 11.5 59.3162 21.5622 58 27C56.8516 31.7445 58 39.5 58 39.5L70.5 56.5C70.5 56.5 71.9485 71.5424 70.5 81C67.789 98.7003 51 122.5 51 122.5L45 169.5V337C45 337 18.8168 328.237 10.5 315C5.46106 306.98 3.5 295 3.5 295V164C3.5 164 5.34686 135.772 10.5 118C15.9241 99.2942 31 72 31 72C31 72 34.2857 58.2267 31 50.5C28.8755 45.5041 24.1604 42.1687 22.5 37C21.007 32.3524 22.5 24 22.5 24Z" fill="#F4F3F3" fill-opacity="0.26"/>
<path d="M31.5 8.5001C31.5 8.5001 79.8385 1.5 109 1.5C158.5 1.49999 203 8.49998 203 8.49998" stroke="black" stroke-width="3"/>
</svg>
