<svg width="209" height="140" viewBox="0 0 209 140" fill="none" xmlns="http://www.w3.org/2000/svg">
<path d="M197.839 45L37.8391 131C37.8391 131 39.0775 116.108 33.339 106.5C27.6859 97.0347 14.8391 91.5 14.8391 91.5L176.339 6C176.339 6 189.324 12.0968 193.839 20C199.167 29.3247 197.839 45 197.839 45Z" fill="#3C1C0A"/>
<path d="M10.5002 46L170.5 132C170.5 132 169.262 117.108 175 107.5C180.653 98.0347 193.5 92.5 193.5 92.5L32.0002 7C32.0002 7 19.0155 13.0968 14.5 21C9.17232 30.3247 10.5002 46 10.5002 46Z" fill="#180900"/>
<ellipse cx="182.461" cy="112.575" rx="13.5" ry="22.9077" transform="rotate(26.6982 182.461 112.575)" fill="#5F441C"/>
<ellipse cx="22.254" cy="27.1068" rx="13.5" ry="22.4154" transform="rotate(26.6982 22.254 27.1068)" fill="#180900"/>
<ellipse rx="13.5" ry="22.4154" transform="matrix(-0.893386 0.44929 0.44929 0.893386 186.132 26.091)" fill="#3C1C0A"/>
<ellipse rx="13.5" ry="22.9071" transform="matrix(-0.893386 0.44929 0.44929 0.893386 25.8822 111.583)" fill="#996E2D"/>
</svg>
