<svg width="522" height="225" viewBox="0 0 522 225" fill="none" xmlns="http://www.w3.org/2000/svg">
<path d="M155.688 54.5L172.906 42.6875C175.49 40.9167 177.604 39.375 179.25 38.0625C180.896 36.75 182.188 35.5833 183.125 34.5625C184.062 33.5208 184.708 32.5833 185.062 31.75C185.417 30.9167 185.594 30.0833 185.594 29.25C185.594 28.2917 185.396 27.3958 185 26.5625C184.604 25.7292 183.979 25 183.125 24.375C182.292 23.75 181.208 23.2604 179.875 22.9062C178.562 22.5521 176.99 22.375 175.156 22.375C172.49 22.375 169.833 22.75 167.188 23.5C164.542 24.25 161.844 25.4479 159.094 27.0938L154.531 19.5938C157.594 17.6979 160.906 16.2188 164.469 15.1562C168.052 14.0938 171.812 13.5625 175.75 13.5625C179.188 13.5625 182.167 13.9792 184.688 14.8125C187.229 15.625 189.323 16.7396 190.969 18.1562C192.635 19.5729 193.875 21.2188 194.688 23.0938C195.5 24.9688 195.906 26.9583 195.906 29.0625C195.906 30.6875 195.635 32.2396 195.094 33.7188C194.552 35.1979 193.604 36.7292 192.25 38.3125C190.896 39.8958 189.062 41.6042 186.75 43.4375C184.458 45.25 181.562 47.3125 178.062 49.625L170.938 54.3125H197.688V63H155.688V54.5ZM206.281 38.4688C206.281 34.5312 206.875 31 208.062 27.875C209.25 24.75 210.938 22.1042 213.125 19.9375C215.312 17.75 217.969 16.0833 221.094 14.9375C224.219 13.7917 227.719 13.2188 231.594 13.2188C235.469 13.2188 238.969 13.7917 242.094 14.9375C245.219 16.0833 247.875 17.75 250.062 19.9375C252.25 22.1042 253.938 24.75 255.125 27.875C256.312 31 256.906 34.5312 256.906 38.4688C256.906 42.4062 256.312 45.9375 255.125 49.0625C253.938 52.1875 252.25 54.8333 250.062 57C247.875 59.1667 245.219 60.8229 242.094 61.9688C238.969 63.1146 235.469 63.6875 231.594 63.6875C227.719 63.6875 224.219 63.1146 221.094 61.9688C217.969 60.8229 215.312 59.1667 213.125 57C210.938 54.8333 209.25 52.1875 208.062 49.0625C206.875 45.9375 206.281 42.4062 206.281 38.4688ZM216.188 38.4375C216.188 41.1042 216.542 43.4583 217.25 45.5C217.979 47.5417 219.01 49.2604 220.344 50.6562C221.677 52.0312 223.292 53.0833 225.188 53.8125C227.083 54.5208 229.219 54.875 231.594 54.875C233.969 54.875 236.104 54.5208 238 53.8125C239.896 53.0833 241.51 52.0312 242.844 50.6562C244.177 49.2604 245.198 47.5417 245.906 45.5C246.635 43.4583 247 41.1042 247 38.4375C247 35.7917 246.635 33.4583 245.906 31.4375C245.198 29.3958 244.177 27.6771 242.844 26.2812C241.51 24.8854 239.896 23.8333 238 23.125C236.104 22.3958 233.969 22.0312 231.594 22.0312C229.219 22.0312 227.083 22.3958 225.188 23.125C223.292 23.8333 221.677 24.8854 220.344 26.2812C219.01 27.6771 217.979 29.3958 217.25 31.4375C216.542 33.4583 216.188 35.7917 216.188 38.4375ZM267.875 54.5L285.094 42.6875C287.677 40.9167 289.792 39.375 291.438 38.0625C293.083 36.75 294.375 35.5833 295.312 34.5625C296.25 33.5208 296.896 32.5833 297.25 31.75C297.604 30.9167 297.781 30.0833 297.781 29.25C297.781 28.2917 297.583 27.3958 297.188 26.5625C296.792 25.7292 296.167 25 295.312 24.375C294.479 23.75 293.396 23.2604 292.062 22.9062C290.75 22.5521 289.177 22.375 287.344 22.375C284.677 22.375 282.021 22.75 279.375 23.5C276.729 24.25 274.031 25.4479 271.281 27.0938L266.719 19.5938C269.781 17.6979 273.094 16.2188 276.656 15.1562C280.24 14.0938 284 13.5625 287.938 13.5625C291.375 13.5625 294.354 13.9792 296.875 14.8125C299.417 15.625 301.51 16.7396 303.156 18.1562C304.823 19.5729 306.062 21.2188 306.875 23.0938C307.688 24.9688 308.094 26.9583 308.094 29.0625C308.094 30.6875 307.823 32.2396 307.281 33.7188C306.74 35.1979 305.792 36.7292 304.438 38.3125C303.083 39.8958 301.25 41.6042 298.938 43.4375C296.646 45.25 293.75 47.3125 290.25 49.625L283.125 54.3125H309.875V63H267.875V54.5ZM318.469 38.4688C318.469 34.5312 319.062 31 320.25 27.875C321.438 24.75 323.125 22.1042 325.312 19.9375C327.5 17.75 330.156 16.0833 333.281 14.9375C336.406 13.7917 339.906 13.2188 343.781 13.2188C347.656 13.2188 351.156 13.7917 354.281 14.9375C357.406 16.0833 360.062 17.75 362.25 19.9375C364.438 22.1042 366.125 24.75 367.312 27.875C368.5 31 369.094 34.5312 369.094 38.4688C369.094 42.4062 368.5 45.9375 367.312 49.0625C366.125 52.1875 364.438 54.8333 362.25 57C360.062 59.1667 357.406 60.8229 354.281 61.9688C351.156 63.1146 347.656 63.6875 343.781 63.6875C339.906 63.6875 336.406 63.1146 333.281 61.9688C330.156 60.8229 327.5 59.1667 325.312 57C323.125 54.8333 321.438 52.1875 320.25 49.0625C319.062 45.9375 318.469 42.4062 318.469 38.4688ZM328.375 38.4375C328.375 41.1042 328.729 43.4583 329.438 45.5C330.167 47.5417 331.198 49.2604 332.531 50.6562C333.865 52.0312 335.479 53.0833 337.375 53.8125C339.271 54.5208 341.406 54.875 343.781 54.875C346.156 54.875 348.292 54.5208 350.188 53.8125C352.083 53.0833 353.698 52.0312 355.031 50.6562C356.365 49.2604 357.385 47.5417 358.094 45.5C358.823 43.4583 359.188 41.1042 359.188 38.4375C359.188 35.7917 358.823 33.4583 358.094 31.4375C357.385 29.3958 356.365 27.6771 355.031 26.2812C353.698 24.8854 352.083 23.8333 350.188 23.125C348.292 22.3958 346.156 22.0312 343.781 22.0312C341.406 22.0312 339.271 22.3958 337.375 23.125C335.479 23.8333 333.865 24.8854 332.531 26.2812C331.198 27.6771 330.167 29.3958 329.438 31.4375C328.729 33.4583 328.375 35.7917 328.375 38.4375ZM0.351562 194.684H4.46484L10.2188 208.652L15.9727 194.684H20.0859L12.0586 213H8.37891L0.351562 194.684ZM21.75 206.039C21.75 205.102 21.9414 204.207 22.3242 203.355C22.707 202.496 23.2578 201.738 23.9766 201.082C24.6953 200.426 25.5742 199.902 26.6133 199.512C27.6602 199.121 28.8477 198.926 30.1758 198.926C31.4961 198.926 32.6836 199.125 33.7383 199.523C34.8008 199.914 35.6992 200.453 36.4336 201.141C37.1758 201.828 37.7422 202.637 38.1328 203.566C38.5312 204.496 38.7305 205.492 38.7305 206.555C38.7305 206.688 38.7266 206.832 38.7188 206.988C38.7188 207.137 38.7109 207.273 38.6953 207.398H25.6172C25.7656 207.812 26.0039 208.191 26.332 208.535C26.668 208.879 27.0859 209.176 27.5859 209.426C28.0859 209.676 28.6641 209.871 29.3203 210.012C29.9766 210.145 30.7031 210.211 31.5 210.211C32.2969 210.211 33.0898 210.129 33.8789 209.965C34.668 209.793 35.4219 209.578 36.1406 209.32L37.3125 211.969C36.8594 212.18 36.3984 212.367 35.9297 212.531C35.4688 212.688 34.9844 212.82 34.4766 212.93C33.9766 213.031 33.4492 213.109 32.8945 213.164C32.3477 213.219 31.7695 213.246 31.1602 213.246C29.6055 213.246 28.2422 213.059 27.0703 212.684C25.8984 212.309 24.918 211.797 24.1289 211.148C23.3398 210.5 22.7461 209.738 22.3477 208.863C21.9492 207.988 21.75 207.047 21.75 206.039ZM35.0508 204.691C34.9258 204.309 34.7305 203.953 34.4648 203.625C34.207 203.289 33.8828 203 33.4922 202.758C33.1016 202.508 32.6484 202.312 32.1328 202.172C31.6172 202.031 31.0508 201.961 30.4336 201.961C29.7773 201.961 29.1797 202.035 28.6406 202.184C28.1016 202.332 27.6289 202.531 27.2227 202.781C26.8164 203.031 26.4766 203.32 26.2031 203.648C25.9375 203.977 25.7422 204.324 25.6172 204.691H35.0508ZM42.4688 199.172H45.9375V201.164C46.7031 200.594 47.5117 200.102 48.3633 199.688C49.2148 199.273 50.0625 198.957 50.9062 198.738L51.9258 201.914C50.5898 202.047 49.4141 202.348 48.3984 202.816C47.3906 203.277 46.5703 203.93 45.9375 204.773V213H42.4688V199.172ZM56.168 214.734C56.5273 214.969 56.918 215.176 57.3398 215.355C57.7617 215.535 58.1992 215.684 58.6523 215.801C59.1133 215.918 59.582 216.004 60.0586 216.059C60.5352 216.121 61.0078 216.152 61.4766 216.152C63.0703 216.152 64.2969 215.809 65.1562 215.121C66.0234 214.441 66.457 213.418 66.457 212.051V211.582C66.1523 211.793 65.8086 211.988 65.4258 212.168C65.0508 212.34 64.6445 212.488 64.207 212.613C63.7773 212.738 63.3203 212.836 62.8359 212.906C62.3594 212.969 61.875 213 61.3828 213C60.3281 213 59.3828 212.848 58.5469 212.543C57.7188 212.23 57.0156 211.777 56.4375 211.184C55.8672 210.582 55.4297 209.844 55.125 208.969C54.8203 208.094 54.668 207.094 54.668 205.969V199.172H58.125V205.008C58.125 206.68 58.4414 207.914 59.0742 208.711C59.7148 209.5 60.7227 209.895 62.0977 209.895C63.0664 209.895 63.9219 209.727 64.6641 209.391C65.4141 209.047 66.0117 208.609 66.457 208.078V199.172H69.9258V211.418C69.9258 212.738 69.7383 213.883 69.3633 214.852C68.9883 215.828 68.4414 216.637 67.7227 217.277C67.0117 217.918 66.1367 218.395 65.0977 218.707C64.0586 219.027 62.8789 219.188 61.5586 219.188C60.2695 219.188 59.0664 219.051 57.9492 218.777C56.832 218.504 55.8086 218.133 54.8789 217.664L56.168 214.734ZM82.2891 193.559H85.7578V200.473C86.0625 200.262 86.4219 200.062 86.8359 199.875C87.25 199.688 87.6953 199.523 88.1719 199.383C88.6484 199.242 89.1406 199.133 89.6484 199.055C90.1562 198.969 90.6641 198.926 91.1719 198.926C92.3438 198.926 93.418 199.098 94.3945 199.441C95.3789 199.785 96.2227 200.27 96.9258 200.895C97.6289 201.52 98.1758 202.27 98.5664 203.145C98.9648 204.012 99.1641 204.973 99.1641 206.027C99.1641 207.129 98.957 208.125 98.543 209.016C98.1289 209.898 97.5547 210.656 96.8203 211.289C96.0938 211.914 95.2266 212.398 94.2188 212.742C93.2188 213.078 92.1328 213.246 90.9609 213.246C90.4609 213.246 89.9648 213.215 89.4727 213.152C88.9883 213.09 88.5195 213.004 88.0664 212.895C87.6211 212.785 87.1992 212.656 86.8008 212.508C86.4102 212.352 86.0625 212.184 85.7578 212.004V213H82.2891V193.559ZM85.7578 208.652C86.1094 208.934 86.4805 209.172 86.8711 209.367C87.2617 209.562 87.6602 209.723 88.0664 209.848C88.4727 209.973 88.8828 210.066 89.2969 210.129C89.7109 210.184 90.1133 210.211 90.5039 210.211C91.3008 210.211 92.0078 210.105 92.625 209.895C93.25 209.676 93.7734 209.379 94.1953 209.004C94.625 208.629 94.9531 208.188 95.1797 207.68C95.4062 207.172 95.5195 206.621 95.5195 206.027C95.5195 205.473 95.4062 204.949 95.1797 204.457C94.9609 203.965 94.6406 203.535 94.2188 203.168C93.8047 202.793 93.3008 202.5 92.707 202.289C92.1211 202.07 91.4609 201.961 90.7266 201.961C90.2578 201.961 89.7891 202.008 89.3203 202.102C88.8516 202.188 88.3984 202.312 87.9609 202.477C87.5312 202.641 87.125 202.84 86.7422 203.074C86.3672 203.309 86.0391 203.57 85.7578 203.859V208.652ZM101.719 208.641C101.719 207.977 101.863 207.371 102.152 206.824C102.441 206.277 102.875 205.809 103.453 205.418C104.031 205.02 104.75 204.715 105.609 204.504C106.477 204.285 107.484 204.176 108.633 204.176C109.484 204.176 110.379 204.238 111.316 204.363C112.262 204.488 113.234 204.68 114.234 204.938C114.195 204.5 114.062 204.098 113.836 203.73C113.609 203.355 113.293 203.035 112.887 202.77C112.488 202.496 112.004 202.285 111.434 202.137C110.871 201.988 110.23 201.914 109.512 201.914C109.121 201.914 108.691 201.938 108.223 201.984C107.754 202.031 107.27 202.102 106.77 202.195C106.27 202.289 105.773 202.406 105.281 202.547C104.797 202.688 104.344 202.855 103.922 203.051L102.867 200.203C103.391 200.016 103.949 199.844 104.543 199.688C105.145 199.531 105.758 199.398 106.383 199.289C107.008 199.172 107.633 199.082 108.258 199.02C108.883 198.957 109.488 198.926 110.074 198.926C112.66 198.926 114.582 199.586 115.84 200.906C117.098 202.227 117.727 204.25 117.727 206.977V213H114.258V211.699C113.898 211.91 113.504 212.109 113.074 212.297C112.652 212.484 112.191 212.648 111.691 212.789C111.191 212.93 110.652 213.039 110.074 213.117C109.504 213.203 108.898 213.246 108.258 213.246C107.18 213.246 106.23 213.129 105.41 212.895C104.598 212.66 103.918 212.336 103.371 211.922C102.824 211.508 102.41 211.023 102.129 210.469C101.855 209.906 101.719 209.297 101.719 208.641ZM105.375 208.523C105.375 208.75 105.434 208.969 105.551 209.18C105.668 209.383 105.855 209.566 106.113 209.73C106.371 209.887 106.699 210.016 107.098 210.117C107.504 210.211 107.992 210.258 108.562 210.258C109.172 210.258 109.762 210.203 110.332 210.094C110.902 209.984 111.434 209.84 111.926 209.66C112.418 209.48 112.863 209.273 113.262 209.039C113.66 208.805 113.992 208.562 114.258 208.312V207.703C113.727 207.555 113.199 207.43 112.676 207.328C112.16 207.227 111.664 207.148 111.188 207.094C110.719 207.031 110.273 206.988 109.852 206.965C109.438 206.941 109.074 206.93 108.762 206.93C108.113 206.93 107.574 206.973 107.145 207.059C106.715 207.145 106.367 207.262 106.102 207.41C105.836 207.551 105.648 207.719 105.539 207.914C105.43 208.109 105.375 208.312 105.375 208.523ZM121.254 206.145C121.254 205.043 121.461 204.051 121.875 203.168C122.289 202.277 122.859 201.52 123.586 200.895C124.32 200.262 125.188 199.777 126.188 199.441C127.195 199.098 128.285 198.926 129.457 198.926C129.957 198.926 130.449 198.957 130.934 199.02C131.426 199.082 131.895 199.168 132.34 199.277C132.793 199.387 133.215 199.52 133.605 199.676C134.004 199.824 134.355 199.988 134.66 200.168V193.559H138.129V213H134.66V211.699C134.355 211.91 133.996 212.109 133.582 212.297C133.168 212.484 132.723 212.648 132.246 212.789C131.77 212.93 131.273 213.039 130.758 213.117C130.25 213.203 129.746 213.246 129.246 213.246C128.074 213.246 126.996 213.074 126.012 212.73C125.035 212.387 124.195 211.902 123.492 211.277C122.789 210.652 122.238 209.906 121.84 209.039C121.449 208.164 121.254 207.199 121.254 206.145ZM124.898 206.145C124.898 206.699 125.008 207.223 125.227 207.715C125.453 208.207 125.773 208.641 126.188 209.016C126.609 209.383 127.113 209.676 127.699 209.895C128.293 210.105 128.957 210.211 129.691 210.211C130.16 210.211 130.629 210.168 131.098 210.082C131.566 209.988 132.016 209.859 132.445 209.695C132.883 209.531 133.289 209.332 133.664 209.098C134.047 208.863 134.379 208.602 134.66 208.312V203.52C134.309 203.238 133.938 203 133.547 202.805C133.156 202.609 132.758 202.449 132.352 202.324C131.945 202.199 131.535 202.109 131.121 202.055C130.707 201.992 130.305 201.961 129.914 201.961C129.117 201.961 128.406 202.07 127.781 202.289C127.164 202.5 126.641 202.793 126.211 203.168C125.789 203.543 125.465 203.984 125.238 204.492C125.012 205 124.898 205.551 124.898 206.145ZM142.453 210.961C142.453 210.648 142.52 210.355 142.652 210.082C142.785 209.809 142.969 209.57 143.203 209.367C143.445 209.156 143.734 208.992 144.07 208.875C144.414 208.758 144.797 208.699 145.219 208.699C145.672 208.699 146.086 208.773 146.461 208.922C146.844 209.062 147.172 209.27 147.445 209.543C147.719 209.816 147.93 210.152 148.078 210.551C148.234 210.941 148.312 211.383 148.312 211.875C148.312 212.984 147.93 214.047 147.164 215.062C146.406 216.086 145.301 216.992 143.848 217.781L142.441 215.789C142.824 215.586 143.16 215.383 143.449 215.18C143.738 214.984 143.992 214.785 144.211 214.582C144.43 214.379 144.617 214.168 144.773 213.949C144.938 213.73 145.082 213.496 145.207 213.246C144.793 213.246 144.414 213.184 144.07 213.059C143.734 212.941 143.445 212.781 143.203 212.578C142.961 212.375 142.773 212.137 142.641 211.863C142.516 211.582 142.453 211.281 142.453 210.961ZM158.496 199.16H162.516L166.113 207.48L167.168 209.812L168.457 206.789L165.035 199.16H168.41L170.086 203.262L171.762 199.16H175.137L171.703 206.789L173.004 209.812L174.059 207.48L177.656 199.16H181.676L175.125 213H171.352L170.086 210.328L168.82 213H165.047L158.496 199.16ZM183.27 206.086C183.27 205.094 183.469 204.164 183.867 203.297C184.273 202.43 184.848 201.672 185.59 201.023C186.34 200.375 187.242 199.863 188.297 199.488C189.359 199.113 190.551 198.926 191.871 198.926C193.191 198.926 194.379 199.113 195.434 199.488C196.496 199.863 197.398 200.375 198.141 201.023C198.891 201.672 199.465 202.43 199.863 203.297C200.27 204.164 200.473 205.094 200.473 206.086C200.473 207.078 200.27 208.008 199.863 208.875C199.465 209.742 198.891 210.5 198.141 211.148C197.398 211.797 196.496 212.309 195.434 212.684C194.379 213.059 193.191 213.246 191.871 213.246C190.551 213.246 189.359 213.059 188.297 212.684C187.242 212.309 186.34 211.797 185.59 211.148C184.848 210.5 184.273 209.742 183.867 208.875C183.469 208.008 183.27 207.078 183.27 206.086ZM186.914 206.086C186.914 206.641 187.023 207.168 187.242 207.668C187.469 208.16 187.793 208.598 188.215 208.98C188.645 209.355 189.164 209.656 189.773 209.883C190.391 210.102 191.09 210.211 191.871 210.211C192.652 210.211 193.348 210.102 193.957 209.883C194.574 209.656 195.094 209.355 195.516 208.98C195.945 208.598 196.27 208.16 196.488 207.668C196.715 207.168 196.828 206.641 196.828 206.086C196.828 205.531 196.715 205.004 196.488 204.504C196.27 204.004 195.945 203.566 195.516 203.191C195.094 202.809 194.574 202.508 193.957 202.289C193.348 202.062 192.652 201.949 191.871 201.949C191.09 201.949 190.391 202.062 189.773 202.289C189.164 202.508 188.645 202.809 188.215 203.191C187.793 203.566 187.469 204.004 187.242 204.504C187.023 205.004 186.914 205.531 186.914 206.086ZM203.977 199.16H207.434V205.91C207.434 206.551 207.504 207.137 207.645 207.668C207.785 208.191 208.023 208.641 208.359 209.016C208.703 209.391 209.156 209.684 209.719 209.895C210.289 210.098 210.996 210.199 211.84 210.199C212.238 210.199 212.641 210.156 213.047 210.07C213.461 209.984 213.855 209.867 214.23 209.719C214.605 209.562 214.953 209.379 215.273 209.168C215.602 208.957 215.883 208.727 216.117 208.477V199.16H219.586V213H216.117V211.816C215.266 212.324 214.41 212.688 213.551 212.906C212.691 213.125 211.875 213.234 211.102 213.234C209.836 213.234 208.75 213.082 207.844 212.777C206.945 212.473 206.207 212.031 205.629 211.453C205.059 210.867 204.641 210.152 204.375 209.309C204.109 208.457 203.977 207.488 203.977 206.402V199.16ZM224.086 193.559H227.555V213H224.086V193.559ZM230.941 206.145C230.941 205.043 231.148 204.051 231.562 203.168C231.977 202.277 232.547 201.52 233.273 200.895C234.008 200.262 234.875 199.777 235.875 199.441C236.883 199.098 237.973 198.926 239.145 198.926C239.645 198.926 240.137 198.957 240.621 199.02C241.113 199.082 241.582 199.168 242.027 199.277C242.48 199.387 242.902 199.52 243.293 199.676C243.691 199.824 244.043 199.988 244.348 200.168V193.559H247.816V213H244.348V211.699C244.043 211.91 243.684 212.109 243.27 212.297C242.855 212.484 242.41 212.648 241.934 212.789C241.457 212.93 240.961 213.039 240.445 213.117C239.938 213.203 239.434 213.246 238.934 213.246C237.762 213.246 236.684 213.074 235.699 212.73C234.723 212.387 233.883 211.902 233.18 211.277C232.477 210.652 231.926 209.906 231.527 209.039C231.137 208.164 230.941 207.199 230.941 206.145ZM234.586 206.145C234.586 206.699 234.695 207.223 234.914 207.715C235.141 208.207 235.461 208.641 235.875 209.016C236.297 209.383 236.801 209.676 237.387 209.895C237.98 210.105 238.645 210.211 239.379 210.211C239.848 210.211 240.316 210.168 240.785 210.082C241.254 209.988 241.703 209.859 242.133 209.695C242.57 209.531 242.977 209.332 243.352 209.098C243.734 208.863 244.066 208.602 244.348 208.312V203.52C243.996 203.238 243.625 203 243.234 202.805C242.844 202.609 242.445 202.449 242.039 202.324C241.633 202.199 241.223 202.109 240.809 202.055C240.395 201.992 239.992 201.961 239.602 201.961C238.805 201.961 238.094 202.07 237.469 202.289C236.852 202.5 236.328 202.793 235.898 203.168C235.477 203.543 235.152 203.984 234.926 204.492C234.699 205 234.586 205.551 234.586 206.145ZM260.039 199.172H263.508V200.344C264.43 199.82 265.309 199.453 266.145 199.242C266.988 199.031 267.812 198.926 268.617 198.926C269.672 198.926 270.648 199.082 271.547 199.395C272.445 199.699 273.223 200.156 273.879 200.766C274.535 201.375 275.047 202.137 275.414 203.051C275.789 203.957 275.977 205.008 275.977 206.203V213H272.52V206.766C272.52 206.008 272.41 205.332 272.191 204.738C271.98 204.137 271.672 203.633 271.266 203.227C270.867 202.812 270.379 202.5 269.801 202.289C269.23 202.07 268.59 201.961 267.879 201.961C267.504 201.961 267.117 202 266.719 202.078C266.328 202.156 265.941 202.27 265.559 202.418C265.184 202.559 264.82 202.738 264.469 202.957C264.117 203.168 263.797 203.41 263.508 203.684V213H260.039V199.172ZM279.41 206.086C279.41 205.094 279.609 204.164 280.008 203.297C280.414 202.43 280.988 201.672 281.73 201.023C282.48 200.375 283.383 199.863 284.438 199.488C285.5 199.113 286.691 198.926 288.012 198.926C289.332 198.926 290.52 199.113 291.574 199.488C292.637 199.863 293.539 200.375 294.281 201.023C295.031 201.672 295.605 202.43 296.004 203.297C296.41 204.164 296.613 205.094 296.613 206.086C296.613 207.078 296.41 208.008 296.004 208.875C295.605 209.742 295.031 210.5 294.281 211.148C293.539 211.797 292.637 212.309 291.574 212.684C290.52 213.059 289.332 213.246 288.012 213.246C286.691 213.246 285.5 213.059 284.438 212.684C283.383 212.309 282.48 211.797 281.73 211.148C280.988 210.5 280.414 209.742 280.008 208.875C279.609 208.008 279.41 207.078 279.41 206.086ZM283.055 206.086C283.055 206.641 283.164 207.168 283.383 207.668C283.609 208.16 283.934 208.598 284.355 208.98C284.785 209.355 285.305 209.656 285.914 209.883C286.531 210.102 287.23 210.211 288.012 210.211C288.793 210.211 289.488 210.102 290.098 209.883C290.715 209.656 291.234 209.355 291.656 208.98C292.086 208.598 292.41 208.16 292.629 207.668C292.855 207.168 292.969 206.641 292.969 206.086C292.969 205.531 292.855 205.004 292.629 204.504C292.41 204.004 292.086 203.566 291.656 203.191C291.234 202.809 290.715 202.508 290.098 202.289C289.488 202.062 288.793 201.949 288.012 201.949C287.23 201.949 286.531 202.062 285.914 202.289C285.305 202.508 284.785 202.809 284.355 203.191C283.934 203.566 283.609 204.004 283.383 204.504C283.164 205.004 283.055 205.531 283.055 206.086ZM302.203 201.773H298.863V199.172H302.203V194.871H305.672V199.172H309.012V201.773H305.672V213H302.203V201.773ZM320.062 199.172H323.531V201.164C324.297 200.594 325.105 200.102 325.957 199.688C326.809 199.273 327.656 198.957 328.5 198.738L329.52 201.914C328.184 202.047 327.008 202.348 325.992 202.816C324.984 203.277 324.164 203.93 323.531 204.773V213H320.062V199.172ZM331.453 206.039C331.453 205.102 331.645 204.207 332.027 203.355C332.41 202.496 332.961 201.738 333.68 201.082C334.398 200.426 335.277 199.902 336.316 199.512C337.363 199.121 338.551 198.926 339.879 198.926C341.199 198.926 342.387 199.125 343.441 199.523C344.504 199.914 345.402 200.453 346.137 201.141C346.879 201.828 347.445 202.637 347.836 203.566C348.234 204.496 348.434 205.492 348.434 206.555C348.434 206.688 348.43 206.832 348.422 206.988C348.422 207.137 348.414 207.273 348.398 207.398H335.32C335.469 207.812 335.707 208.191 336.035 208.535C336.371 208.879 336.789 209.176 337.289 209.426C337.789 209.676 338.367 209.871 339.023 210.012C339.68 210.145 340.406 210.211 341.203 210.211C342 210.211 342.793 210.129 343.582 209.965C344.371 209.793 345.125 209.578 345.844 209.32L347.016 211.969C346.562 212.18 346.102 212.367 345.633 212.531C345.172 212.688 344.688 212.82 344.18 212.93C343.68 213.031 343.152 213.109 342.598 213.164C342.051 213.219 341.473 213.246 340.863 213.246C339.309 213.246 337.945 213.059 336.773 212.684C335.602 212.309 334.621 211.797 333.832 211.148C333.043 210.5 332.449 209.738 332.051 208.863C331.652 207.988 331.453 207.047 331.453 206.039ZM344.754 204.691C344.629 204.309 344.434 203.953 344.168 203.625C343.91 203.289 343.586 203 343.195 202.758C342.805 202.508 342.352 202.312 341.836 202.172C341.32 202.031 340.754 201.961 340.137 201.961C339.48 201.961 338.883 202.035 338.344 202.184C337.805 202.332 337.332 202.531 336.926 202.781C336.52 203.031 336.18 203.32 335.906 203.648C335.641 203.977 335.445 204.324 335.32 204.691H344.754ZM351.34 206.121C351.34 205.105 351.523 204.16 351.891 203.285C352.266 202.402 352.809 201.641 353.52 201C354.238 200.352 355.113 199.844 356.145 199.477C357.184 199.109 358.367 198.926 359.695 198.926C360.273 198.926 360.855 198.961 361.441 199.031C362.027 199.102 362.59 199.203 363.129 199.336C363.676 199.461 364.188 199.613 364.664 199.793C365.141 199.965 365.555 200.156 365.906 200.367L364.301 202.98C363.543 202.629 362.824 202.371 362.145 202.207C361.473 202.043 360.789 201.961 360.094 201.961C359.297 201.961 358.582 202.066 357.949 202.277C357.316 202.48 356.777 202.77 356.332 203.145C355.895 203.512 355.559 203.949 355.324 204.457C355.098 204.957 354.984 205.504 354.984 206.098C354.984 206.691 355.105 207.242 355.348 207.75C355.598 208.25 355.945 208.684 356.391 209.051C356.844 209.41 357.387 209.695 358.02 209.906C358.66 210.109 359.371 210.211 360.152 210.211C361.012 210.211 361.82 210.09 362.578 209.848C363.344 209.605 364.055 209.281 364.711 208.875L366.316 211.488C365.902 211.738 365.453 211.973 364.969 212.191C364.484 212.402 363.965 212.586 363.41 212.742C362.863 212.898 362.285 213.02 361.676 213.105C361.074 213.199 360.449 213.246 359.801 213.246C358.48 213.246 357.297 213.066 356.25 212.707C355.203 212.348 354.316 211.852 353.59 211.219C352.863 210.578 352.305 209.824 351.914 208.957C351.531 208.09 351.34 207.145 351.34 206.121ZM369.223 206.086C369.223 205.094 369.422 204.164 369.82 203.297C370.227 202.43 370.801 201.672 371.543 201.023C372.293 200.375 373.195 199.863 374.25 199.488C375.312 199.113 376.504 198.926 377.824 198.926C379.145 198.926 380.332 199.113 381.387 199.488C382.449 199.863 383.352 200.375 384.094 201.023C384.844 201.672 385.418 202.43 385.816 203.297C386.223 204.164 386.426 205.094 386.426 206.086C386.426 207.078 386.223 208.008 385.816 208.875C385.418 209.742 384.844 210.5 384.094 211.148C383.352 211.797 382.449 212.309 381.387 212.684C380.332 213.059 379.145 213.246 377.824 213.246C376.504 213.246 375.312 213.059 374.25 212.684C373.195 212.309 372.293 211.797 371.543 211.148C370.801 210.5 370.227 209.742 369.82 208.875C369.422 208.008 369.223 207.078 369.223 206.086ZM372.867 206.086C372.867 206.641 372.977 207.168 373.195 207.668C373.422 208.16 373.746 208.598 374.168 208.98C374.598 209.355 375.117 209.656 375.727 209.883C376.344 210.102 377.043 210.211 377.824 210.211C378.605 210.211 379.301 210.102 379.91 209.883C380.527 209.656 381.047 209.355 381.469 208.98C381.898 208.598 382.223 208.16 382.441 207.668C382.668 207.168 382.781 206.641 382.781 206.086C382.781 205.531 382.668 205.004 382.441 204.504C382.223 204.004 381.898 203.566 381.469 203.191C381.047 202.809 380.527 202.508 379.91 202.289C379.301 202.062 378.605 201.949 377.824 201.949C377.043 201.949 376.344 202.062 375.727 202.289C375.117 202.508 374.598 202.809 374.168 203.191C373.746 203.566 373.422 204.004 373.195 204.504C372.977 205.004 372.867 205.531 372.867 206.086ZM390.023 199.172H393.492V200.344C394.359 199.812 395.203 199.445 396.023 199.242C396.852 199.031 397.66 198.926 398.449 198.926C399.551 198.926 400.562 199.102 401.484 199.453C402.406 199.805 403.195 200.336 403.852 201.047C404.359 200.656 404.859 200.328 405.352 200.062C405.844 199.789 406.336 199.57 406.828 199.406C407.32 199.234 407.82 199.113 408.328 199.043C408.836 198.965 409.359 198.926 409.898 198.926C411.031 198.926 412.059 199.082 412.98 199.395C413.902 199.699 414.688 200.156 415.336 200.766C415.992 201.375 416.496 202.137 416.848 203.051C417.207 203.957 417.387 205.008 417.387 206.203V213H413.93V206.766C413.93 206.008 413.82 205.332 413.602 204.738C413.391 204.137 413.09 203.633 412.699 203.227C412.316 202.812 411.855 202.5 411.316 202.289C410.785 202.07 410.199 201.961 409.559 201.961C409.207 201.961 408.848 201.996 408.48 202.066C408.113 202.129 407.754 202.23 407.402 202.371C407.059 202.512 406.734 202.691 406.43 202.91C406.125 203.121 405.859 203.371 405.633 203.66V213H402.176V206.766C402.176 206.008 402.066 205.332 401.848 204.738C401.637 204.137 401.336 203.633 400.945 203.227C400.562 202.812 400.098 202.5 399.551 202.289C399.012 202.07 398.418 201.961 397.77 201.961C397.371 201.961 396.969 202.004 396.562 202.09C396.164 202.168 395.777 202.281 395.402 202.43C395.035 202.578 394.688 202.758 394.359 202.969C394.039 203.18 393.75 203.418 393.492 203.684V213H390.023V199.172ZM421.852 199.172H425.32V200.344C426.188 199.812 427.031 199.445 427.852 199.242C428.68 199.031 429.488 198.926 430.277 198.926C431.379 198.926 432.391 199.102 433.312 199.453C434.234 199.805 435.023 200.336 435.68 201.047C436.188 200.656 436.688 200.328 437.18 200.062C437.672 199.789 438.164 199.57 438.656 199.406C439.148 199.234 439.648 199.113 440.156 199.043C440.664 198.965 441.188 198.926 441.727 198.926C442.859 198.926 443.887 199.082 444.809 199.395C445.73 199.699 446.516 200.156 447.164 200.766C447.82 201.375 448.324 202.137 448.676 203.051C449.035 203.957 449.215 205.008 449.215 206.203V213H445.758V206.766C445.758 206.008 445.648 205.332 445.43 204.738C445.219 204.137 444.918 203.633 444.527 203.227C444.145 202.812 443.684 202.5 443.145 202.289C442.613 202.07 442.027 201.961 441.387 201.961C441.035 201.961 440.676 201.996 440.309 202.066C439.941 202.129 439.582 202.23 439.23 202.371C438.887 202.512 438.562 202.691 438.258 202.91C437.953 203.121 437.688 203.371 437.461 203.66V213H434.004V206.766C434.004 206.008 433.895 205.332 433.676 204.738C433.465 204.137 433.164 203.633 432.773 203.227C432.391 202.812 431.926 202.5 431.379 202.289C430.84 202.07 430.246 201.961 429.598 201.961C429.199 201.961 428.797 202.004 428.391 202.09C427.992 202.168 427.605 202.281 427.23 202.43C426.863 202.578 426.516 202.758 426.188 202.969C425.867 203.18 425.578 203.418 425.32 203.684V213H421.852V199.172ZM452.93 206.039C452.93 205.102 453.121 204.207 453.504 203.355C453.887 202.496 454.438 201.738 455.156 201.082C455.875 200.426 456.754 199.902 457.793 199.512C458.84 199.121 460.027 198.926 461.355 198.926C462.676 198.926 463.863 199.125 464.918 199.523C465.98 199.914 466.879 200.453 467.613 201.141C468.355 201.828 468.922 202.637 469.312 203.566C469.711 204.496 469.91 205.492 469.91 206.555C469.91 206.688 469.906 206.832 469.898 206.988C469.898 207.137 469.891 207.273 469.875 207.398H456.797C456.945 207.812 457.184 208.191 457.512 208.535C457.848 208.879 458.266 209.176 458.766 209.426C459.266 209.676 459.844 209.871 460.5 210.012C461.156 210.145 461.883 210.211 462.68 210.211C463.477 210.211 464.27 210.129 465.059 209.965C465.848 209.793 466.602 209.578 467.32 209.32L468.492 211.969C468.039 212.18 467.578 212.367 467.109 212.531C466.648 212.688 466.164 212.82 465.656 212.93C465.156 213.031 464.629 213.109 464.074 213.164C463.527 213.219 462.949 213.246 462.34 213.246C460.785 213.246 459.422 213.059 458.25 212.684C457.078 212.309 456.098 211.797 455.309 211.148C454.52 210.5 453.926 209.738 453.527 208.863C453.129 207.988 452.93 207.047 452.93 206.039ZM466.23 204.691C466.105 204.309 465.91 203.953 465.645 203.625C465.387 203.289 465.062 203 464.672 202.758C464.281 202.508 463.828 202.312 463.312 202.172C462.797 202.031 462.23 201.961 461.613 201.961C460.957 201.961 460.359 202.035 459.82 202.184C459.281 202.332 458.809 202.531 458.402 202.781C457.996 203.031 457.656 203.32 457.383 203.648C457.117 203.977 456.922 204.324 456.797 204.691H466.23ZM473.648 199.172H477.117V200.344C478.039 199.82 478.918 199.453 479.754 199.242C480.598 199.031 481.422 198.926 482.227 198.926C483.281 198.926 484.258 199.082 485.156 199.395C486.055 199.699 486.832 200.156 487.488 200.766C488.145 201.375 488.656 202.137 489.023 203.051C489.398 203.957 489.586 205.008 489.586 206.203V213H486.129V206.766C486.129 206.008 486.02 205.332 485.801 204.738C485.59 204.137 485.281 203.633 484.875 203.227C484.477 202.812 483.988 202.5 483.41 202.289C482.84 202.07 482.199 201.961 481.488 201.961C481.113 201.961 480.727 202 480.328 202.078C479.938 202.156 479.551 202.27 479.168 202.418C478.793 202.559 478.43 202.738 478.078 202.957C477.727 203.168 477.406 203.41 477.117 203.684V213H473.648V199.172ZM492.785 206.145C492.785 205.043 492.992 204.051 493.406 203.168C493.82 202.277 494.391 201.52 495.117 200.895C495.852 200.262 496.719 199.777 497.719 199.441C498.727 199.098 499.816 198.926 500.988 198.926C501.488 198.926 501.98 198.957 502.465 199.02C502.957 199.082 503.426 199.168 503.871 199.277C504.324 199.387 504.746 199.52 505.137 199.676C505.535 199.824 505.887 199.988 506.191 200.168V193.559H509.66V213H506.191V211.699C505.887 211.91 505.527 212.109 505.113 212.297C504.699 212.484 504.254 212.648 503.777 212.789C503.301 212.93 502.805 213.039 502.289 213.117C501.781 213.203 501.277 213.246 500.777 213.246C499.605 213.246 498.527 213.074 497.543 212.73C496.566 212.387 495.727 211.902 495.023 211.277C494.32 210.652 493.77 209.906 493.371 209.039C492.98 208.164 492.785 207.199 492.785 206.145ZM496.43 206.145C496.43 206.699 496.539 207.223 496.758 207.715C496.984 208.207 497.305 208.641 497.719 209.016C498.141 209.383 498.645 209.676 499.23 209.895C499.824 210.105 500.488 210.211 501.223 210.211C501.691 210.211 502.16 210.168 502.629 210.082C503.098 209.988 503.547 209.859 503.977 209.695C504.414 209.531 504.82 209.332 505.195 209.098C505.578 208.863 505.91 208.602 506.191 208.312V203.52C505.84 203.238 505.469 203 505.078 202.805C504.688 202.609 504.289 202.449 503.883 202.324C503.477 202.199 503.066 202.109 502.652 202.055C502.238 201.992 501.836 201.961 501.445 201.961C500.648 201.961 499.938 202.07 499.312 202.289C498.695 202.5 498.172 202.793 497.742 203.168C497.32 203.543 496.996 203.984 496.77 204.492C496.543 205 496.43 205.551 496.43 206.145ZM513.984 210.973C513.984 210.66 514.047 210.367 514.172 210.094C514.305 209.812 514.492 209.57 514.734 209.367C514.977 209.156 515.27 208.992 515.613 208.875C515.957 208.758 516.344 208.699 516.773 208.699C517.203 208.699 517.59 208.758 517.934 208.875C518.277 208.992 518.566 209.156 518.801 209.367C519.043 209.57 519.227 209.812 519.352 210.094C519.484 210.367 519.551 210.66 519.551 210.973C519.551 211.285 519.484 211.582 519.352 211.863C519.227 212.137 519.043 212.375 518.801 212.578C518.566 212.781 518.277 212.941 517.934 213.059C517.59 213.184 517.203 213.246 516.773 213.246C516.344 213.246 515.957 213.184 515.613 213.059C515.27 212.941 514.977 212.781 514.734 212.578C514.492 212.375 514.305 212.137 514.172 211.863C514.047 211.582 513.984 211.285 513.984 210.973Z" fill="#9CDCFE"/>
<path d="M44 81L53.8786 111.403H85.8465L59.9839 130.193L69.8625 160.597L44 141.807L18.1374 160.597L28.0161 130.193L2.15351 111.403H34.1214L44 81Z" fill="#9CDCFE"/>
<path d="M148 87.4721L155.977 112.021L156.426 113.403H157.879H183.691L162.808 128.575L161.633 129.43L162.082 130.812L170.058 155.361L149.176 140.188L148 139.334L146.824 140.188L125.942 155.361L133.918 130.812L134.367 129.43L133.192 128.575L112.309 113.403H138.121H139.574L140.023 112.021L148 87.4721Z" stroke="#9CDCFE" stroke-width="4"/>
<path d="M469 87.4721L476.977 112.021L477.426 113.403H478.879H504.691L483.808 128.575L482.633 129.43L483.082 130.812L491.058 155.361L470.176 140.188L469 139.334L467.824 140.188L446.942 155.361L454.918 130.812L455.367 129.43L454.192 128.575L433.309 113.403H459.121H460.574L461.023 112.021L469 87.4721Z" stroke="#9CDCFE" stroke-width="4"/>
<path d="M365 87.4721L372.977 112.021L373.426 113.403H374.879H400.691L379.808 128.575L378.633 129.43L379.082 130.812L387.058 155.361L366.176 140.188L365 139.334L363.824 140.188L342.942 155.361L350.918 130.812L351.367 129.43L350.192 128.575L329.309 113.403H355.121H356.574L357.023 112.021L365 87.4721Z" stroke="#9CDCFE" stroke-width="4"/>
<path d="M260 87.4721L267.977 112.021L268.426 113.403H269.879H295.691L274.808 128.575L273.633 129.43L274.082 130.812L282.058 155.361L261.176 140.188L260 139.334L258.824 140.188L237.942 155.361L245.918 130.812L246.367 129.43L245.192 128.575L224.309 113.403H250.121H251.574L252.023 112.021L260 87.4721Z" stroke="#9CDCFE" stroke-width="4"/>
</svg>
